<svg width="667" height="568" viewBox="0 0 667 568" fill="none" xmlns="http://www.w3.org/2000/svg">
<path d="M440.471 46.7964L478.525 83.523L516.77 290.557H158.023L440.471 46.7964Z" fill="#FFCF2D"/>
<path d="M478.852 83.2345L440.683 46.3926L447.067 39.7587C456.47 29.9906 473.41 31.1059 483.178 40.4894C492.946 49.8922 494.658 66.8325 485.255 76.6007L478.852 83.2345Z" fill="white" stroke="#FFCF2D" stroke-width="1.15371" stroke-miterlimit="10" stroke-linecap="round"/>
<path d="M485.236 76.6005L447.048 39.7585" stroke="#FFCF2D" stroke-width="1.15371" stroke-miterlimit="10" stroke-linecap="round"/>
<path d="M485.274 42.1624L489.543 38.8935C495.273 34.5094 503.503 35.6631 507.791 41.4894L612.702 169.206L558.996 288.98" stroke="#174DA4" stroke-width="1.15371" stroke-miterlimit="10" stroke-linecap="round"/>
<path d="M610.99 175.724C614.24 175.724 616.874 173.09 616.874 169.84C616.874 166.59 614.24 163.956 610.99 163.956C607.741 163.956 605.106 166.59 605.106 169.84C605.106 173.09 607.741 175.724 610.99 175.724Z" fill="white" stroke="#FFCF2D" stroke-width="1.15371" stroke-miterlimit="10" stroke-linecap="round"/>
<path d="M544.075 275.597H572.745C580.994 275.597 587.666 282.289 587.666 290.519V290.942H529.134V290.519C529.154 282.289 535.826 275.597 544.075 275.597Z" fill="white" stroke="#FFCF2D" stroke-width="1.15371" stroke-miterlimit="10" stroke-linecap="round"/>
<path d="M405.187 247.273H223.688C216.862 247.273 211.344 241.755 211.344 234.929V107.982C211.344 101.156 216.862 95.637 223.688 95.637H405.187C412.013 95.637 417.531 101.156 417.531 107.982V234.91C417.551 241.736 412.013 247.273 405.187 247.273Z" fill="white" stroke="#174DA4" stroke-width="1.15371" stroke-miterlimit="10" stroke-linecap="round"/>
<path d="M405.302 235.467H225.553C222.881 235.467 220.727 233.294 220.727 230.641V109.193C220.727 106.52 222.9 104.367 225.553 104.367H405.302C407.975 104.367 410.128 106.54 410.128 109.193V230.621C410.148 233.294 407.975 235.467 405.302 235.467Z" fill="#1981DB" stroke="#1981DB" stroke-width="1.15371" stroke-miterlimit="10" stroke-linejoin="round"/>
<path d="M231.995 115.712H229.149C228.226 115.712 227.457 114.962 227.457 114.019V111.174C227.457 110.251 228.207 109.481 229.149 109.481H231.995C232.918 109.481 233.687 110.231 233.687 111.174V114.019C233.668 114.962 232.918 115.712 231.995 115.712Z" stroke="white" stroke-width="1.15371" stroke-miterlimit="10" stroke-linecap="round"/>
<path d="M244.936 115.712H242.09C241.167 115.712 240.398 114.962 240.398 114.019V111.174C240.398 110.251 241.148 109.481 242.09 109.481H244.936C245.859 109.481 246.628 110.231 246.628 111.174V114.019C246.628 114.962 245.859 115.712 244.936 115.712Z" stroke="white" stroke-width="1.15371" stroke-miterlimit="10" stroke-linecap="round"/>
<path d="M257.877 115.712H255.031C254.108 115.712 253.339 114.962 253.339 114.019V111.174C253.339 110.251 254.089 109.481 255.031 109.481H257.877C258.8 109.481 259.569 110.231 259.569 111.174V114.019C259.569 114.962 258.819 115.712 257.877 115.712Z" stroke="white" stroke-width="1.15371" stroke-miterlimit="10" stroke-linecap="round"/>
<path d="M352.751 290.557H282.297L296.122 247.273H338.906L352.751 290.557Z" fill="white" stroke="#174DA4" stroke-width="1.15371" stroke-miterlimit="10" stroke-linecap="round"/>
<path d="M287.835 273.232L296.122 247.273H338.906L287.835 273.232Z" fill="#174DA4"/>
<path d="M394.842 144.189H360.596C357.385 144.189 354.789 141.593 354.789 138.382V116.269C354.789 113.058 357.385 110.462 360.596 110.462H394.842C398.053 110.462 400.649 113.058 400.649 116.269V138.382C400.649 141.593 398.053 144.189 394.842 144.189Z" stroke="white" stroke-width="1.15371" stroke-miterlimit="10" stroke-linecap="round"/>
<path d="M364.576 118.346H390.708" stroke="white" stroke-width="1.15371" stroke-miterlimit="10" stroke-linecap="round"/>
<path d="M364.576 124.307H390.708" stroke="white" stroke-width="1.15371" stroke-miterlimit="10" stroke-linecap="round"/>
<path d="M364.576 130.267H390.708" stroke="white" stroke-width="1.15371" stroke-miterlimit="10" stroke-linecap="round"/>
<path d="M364.576 136.228H390.708" stroke="white" stroke-width="1.15371" stroke-miterlimit="10" stroke-linecap="round"/>
<path d="M404.302 235.467H268.183L260.203 246.908C251.185 259.83 232.129 260.022 222.861 247.273L174.251 180.416C176.29 182.954 185.616 180.127 194.499 174.282C203.517 168.34 209.344 160.86 207.517 158.091L241.225 201.048L251.55 182.819C254.377 177.993 259.069 174.532 264.53 173.263L299.66 165.821H329.945L363.326 173.186C369.133 174.513 374.056 178.301 376.844 183.55L404.302 235.467Z" fill="white" stroke="#174DA4" stroke-width="1.15371" stroke-miterlimit="10"/>
<path d="M366.941 234.679L357.269 215.585" stroke="#174DA4" stroke-width="1.15371" stroke-miterlimit="10" stroke-linecap="round"/>
<path d="M267.414 236.467L276.99 217.565" stroke="#174DA4" stroke-width="1.15371" stroke-miterlimit="10" stroke-linecap="round"/>
<path d="M228.111 184.377L250.051 212.431" stroke="#174DA4" stroke-width="1.15371" stroke-miterlimit="10" stroke-linecap="round"/>
<path d="M318.581 175.051L326.657 184.877L344.732 169.532" stroke="#174DA4" stroke-width="1.15371" stroke-miterlimit="10" stroke-linecap="round"/>
<path d="M312.409 175.243L304.564 185.261L284.7 169.532" stroke="#174DA4" stroke-width="1.15371" stroke-miterlimit="10" stroke-linecap="round"/>
<path d="M214.208 166.687C216.035 169.475 210.19 177.051 201.114 183.069C192.192 188.992 182.731 191.837 180.674 189.28" stroke="#174DA4" stroke-width="1.15371" stroke-miterlimit="10" stroke-linecap="round"/>
<path d="M208.171 171.551C209.371 171.551 210.344 170.579 210.344 169.379C210.344 168.179 209.371 167.206 208.171 167.206C206.971 167.206 205.998 168.179 205.998 169.379C205.998 170.579 206.971 171.551 208.171 171.551Z" stroke="#174DA4" stroke-width="1.15371" stroke-miterlimit="10" stroke-linecap="round"/>
<path d="M315.466 185.204C316.666 185.204 317.639 184.231 317.639 183.031C317.639 181.831 316.666 180.858 315.466 180.858C314.266 180.858 313.293 181.831 313.293 183.031C313.293 184.231 314.266 185.204 315.466 185.204Z" stroke="#174DA4" stroke-width="1.15371" stroke-miterlimit="10" stroke-linecap="round"/>
<path d="M315.466 202.702C316.666 202.702 317.639 201.729 317.639 200.529C317.639 199.329 316.666 198.356 315.466 198.356C314.266 198.356 313.293 199.329 313.293 200.529C313.293 201.729 314.266 202.702 315.466 202.702Z" stroke="#174DA4" stroke-width="1.15371" stroke-miterlimit="10" stroke-linecap="round"/>
<path d="M259.511 247.831L268.183 235.467V247.831H259.511Z" fill="#174DA4"/>
<path d="M194.288 173.705C185.404 179.55 176.078 182.377 174.04 179.839C174.002 179.8 173.982 179.762 173.944 179.704C173.521 179.07 173.559 178.204 173.944 177.147C175.271 173.666 180.751 168.282 187.712 163.706C193.249 160.052 198.71 157.514 202.498 156.726C204.69 156.284 206.325 156.418 207.113 157.264L207.305 157.495C209.113 160.264 203.306 167.763 194.288 173.705Z" fill="#FE5244"/>
<path d="M194.288 173.705C189.231 177.031 184.02 179.396 180.097 180.319L162.541 155.553C160.099 152.092 160.907 147.304 164.387 144.862L180.193 133.748L171.233 118.5C169.925 116.288 170.675 113.423 172.906 112.135C173.636 111.712 174.425 111.52 175.213 111.52C176.732 111.52 178.232 112.269 179.116 113.654L207.132 157.226L207.325 157.534C209.113 160.264 203.306 167.763 194.288 173.705Z" fill="#EF99A4"/>
<path d="M180.155 133.921L189.942 149.092C190.846 150.515 190.442 152.4 189.019 153.323L186.846 154.746C185.423 155.688 183.501 155.284 182.578 153.861L173.329 140.016" stroke="#9A3B82" stroke-width="1.15371" stroke-miterlimit="10" stroke-linecap="round"/>
<path d="M182.539 153.823C183.481 155.265 183.058 157.207 181.616 158.13L179.636 159.38C178.213 160.283 176.328 159.88 175.405 158.476" stroke="#9A3B82" stroke-width="1.15371" stroke-miterlimit="10" stroke-linecap="round"/>
<path d="M166.31 144.9L175.367 158.36C176.309 159.803 175.905 161.745 174.425 162.668L172.579 163.687C171.194 164.571 169.368 164.206 168.406 162.86L163.157 155.457" stroke="#9A3B82" stroke-width="1.15371" stroke-miterlimit="10" stroke-linecap="round"/>
<path d="M200.595 147.073L195.999 139.94C194.48 137.574 191.307 136.921 188.981 138.497L177.578 146.227C177.578 146.227 180.885 152.169 188.923 147.458L191.615 151.746C186.116 155.226 184.539 162.552 188.115 167.994L200.595 147.073Z" fill="#EF99A4"/>
<path d="M199.999 147.266L195.403 140.132C193.884 137.767 190.711 137.113 188.385 138.69L177.578 146.227C177.578 146.227 180.885 152.169 188.923 147.458L191.615 151.746C186.116 155.226 184.539 162.552 188.115 167.994" stroke="#9A3B82" stroke-width="1.15371" stroke-miterlimit="10" stroke-linecap="round"/>
<path d="M194.288 173.705C189.231 177.031 184.02 179.396 180.097 180.319L175.732 174.166C178.174 170.974 182.539 167.129 187.712 163.725C193.249 160.072 198.71 157.534 202.498 156.745C204.69 156.303 206.325 156.438 207.113 157.284L207.305 157.514C207.325 157.553 207.344 157.572 207.363 157.611C207.382 157.63 207.382 157.649 207.402 157.687C207.421 157.726 207.44 157.745 207.459 157.784C208.767 160.726 203.018 167.936 194.288 173.705Z" fill="#9A3B82"/>
<path d="M329.926 148.9V165.802C329.926 170.705 323.119 174.666 314.755 174.666C306.371 174.666 299.583 170.705 299.583 165.802V148.9H329.926Z" fill="#EF99A4"/>
<path d="M304.025 172.071C301.275 170.475 299.564 168.244 299.564 165.802V148.9H329.926V153.592C329.926 158.457 326.965 162.822 322.465 164.648L304.025 172.071Z" fill="#9A3B82"/>
<path d="M338.386 147.9V148.189C338.386 151.111 336.021 153.476 333.099 153.476H329.618C328.445 158.207 324.177 161.726 319.062 161.726H310.447C305.352 161.726 301.064 158.226 299.91 153.476H296.43C293.507 153.476 291.142 151.111 291.142 148.189V147.9C291.142 144.977 293.507 142.612 296.43 142.612H299.583V138.44C299.583 133.979 302.871 130.287 307.159 129.672C308.101 131.248 310.947 135.017 316.754 134.806C319.485 134.709 322.023 134.19 324.119 133.575C326.638 132.844 329.157 134.383 329.791 136.786C329.887 137.324 329.945 137.863 329.945 138.421V142.593H333.099C336.002 142.593 338.386 144.977 338.386 147.9Z" fill="#EF99A4"/>
<path d="M332.349 142.593H329.926V137.959C329.926 137.555 329.868 137.152 329.772 136.786C329.137 134.383 326.619 132.844 324.1 133.575C322.004 134.19 319.485 134.709 316.735 134.806C310.928 135.017 308.082 131.248 307.14 129.672C302.852 130.287 299.564 133.979 299.564 138.44V142.612H296.545C296.545 142.612 293.084 130.095 295.68 126.557C298.237 123.076 301.314 124.595 301.314 124.595C301.314 124.595 299.468 114.173 309.774 114.366C320.062 114.558 333.445 126.499 334.425 128.691C335.964 132.056 332.349 142.593 332.349 142.593Z" fill="#9A3B82"/>
<path d="M331.099 148.881C331.099 146.823 332.772 145.17 334.81 145.17" stroke="#9A3B82" stroke-width="0.961429" stroke-miterlimit="10" stroke-linecap="round"/>
<path d="M298.449 148.881C298.449 146.823 296.776 145.17 294.738 145.17" stroke="#9A3B82" stroke-width="0.961429" stroke-miterlimit="10" stroke-linecap="round"/>
<path d="M325.08 138.44C325.08 138.44 322.35 136.44 318.869 137.882" stroke="#9A3B82" stroke-width="0.961429" stroke-miterlimit="10" stroke-linecap="round"/>
<path d="M304.237 138.44C304.237 138.44 306.967 136.44 310.447 137.882" stroke="#9A3B82" stroke-width="0.961429" stroke-miterlimit="10" stroke-linecap="round"/>
<path d="M319.542 152.63C319.542 152.63 318.062 155.822 313.524 154.149" stroke="#9A3B82" stroke-width="0.961429" stroke-miterlimit="10" stroke-linecap="round"/>
<path d="M313.312 150.977C314.485 151.054 316.274 150.977 316.274 150.977" stroke="#9A3B82" stroke-width="0.961429" stroke-miterlimit="10" stroke-linecap="round"/>
<path d="M321.984 146.458C322.515 146.458 322.946 145.735 322.946 144.842C322.946 143.95 322.515 143.227 321.984 143.227C321.453 143.227 321.023 143.95 321.023 144.842C321.023 145.735 321.453 146.458 321.984 146.458Z" fill="#9A3B82"/>
<path d="M308.198 146.458C308.728 146.458 309.159 145.735 309.159 144.842C309.159 143.95 308.728 143.227 308.198 143.227C307.667 143.227 307.236 143.95 307.236 144.842C307.236 145.735 307.667 146.458 308.198 146.458Z" fill="#9A3B82"/>
<path d="M310.486 150.285H304.429C303.256 150.285 302.313 149.343 302.313 148.17V142.113C302.313 140.94 303.256 139.997 304.429 139.997H310.486C311.659 139.997 312.601 140.94 312.601 142.113V148.17C312.62 149.323 311.659 150.285 310.486 150.285Z" stroke="white" stroke-width="0.961429" stroke-miterlimit="10"/>
<path d="M325.311 150.285H319.254C318.081 150.285 317.139 149.342 317.139 148.169V142.112C317.139 140.94 318.081 139.997 319.254 139.997H325.311C326.484 139.997 327.426 140.94 327.426 142.112V148.169C327.426 149.323 326.484 150.285 325.311 150.285Z" stroke="white" stroke-width="0.961429" stroke-miterlimit="10"/>
<path d="M312.62 143.997H317.139" stroke="white" stroke-width="0.961429" stroke-miterlimit="10"/>
<path d="M326.907 228.006H305.89C303.987 228.006 302.429 226.468 302.429 224.545V213.373C302.429 211.47 303.967 209.912 305.89 209.912H326.907C328.811 209.912 330.368 211.451 330.368 213.373V224.545C330.368 226.449 328.83 228.006 326.907 228.006Z" stroke="#1981DB" stroke-width="1.15371" stroke-miterlimit="10" stroke-linejoin="round"/>
<path d="M316.927 223.507H309.813C308.678 223.507 307.755 222.584 307.755 221.449V216.469C307.755 215.335 308.678 214.412 309.813 214.412H316.927C318.062 214.412 318.985 215.335 318.985 216.469V221.449C318.985 222.584 318.062 223.507 316.927 223.507Z" fill="#1981DB"/>
<path d="M323.85 223.372L321.658 221.911C321.062 221.507 320.696 220.815 320.696 220.065V217.873C320.696 217.123 321.062 216.431 321.658 216.027L323.85 214.566C324.369 214.219 325.042 214.604 325.042 215.258V222.699C325.061 223.334 324.369 223.718 323.85 223.372Z" fill="#1981DB"/>
<path d="M607.991 290.941H97.5298" stroke="#174DA4" stroke-width="1.15371" stroke-miterlimit="10" stroke-linecap="round"/>
<path d="M261.876 294.307V531.702H248.474V486.515C248.474 482.304 245.052 478.882 240.84 478.882H144.909C140.698 478.882 137.275 482.304 137.275 486.515V531.702H123.873V294.307H261.876Z" fill="white" stroke="#174DA4" stroke-width="1.15371" stroke-miterlimit="10" stroke-linecap="round"/>
<path d="M262.28 294.307V357.299L123.873 471.267L123.892 294.307H262.28Z" fill="#D0F0E4"/>
<path d="M248.474 312.381V355.434C248.474 359.434 245.244 362.664 241.244 362.664H144.524C140.525 362.664 137.294 359.434 137.294 355.434V312.381C137.294 308.382 140.525 305.151 144.524 305.151H241.244C245.244 305.151 248.474 308.382 248.474 312.381Z" stroke="#174DA4" stroke-width="1.15371" stroke-miterlimit="10" stroke-linecap="round"/>
<path d="M217.478 395.276H169.868L167.887 381.643H215.516L217.478 395.276Z" fill="#FFCF2D"/>
<path d="M242.879 373.778C236.937 373.778 232.13 378.585 232.13 384.527V395.276H191.615V384.527C191.615 378.585 196.422 373.778 202.364 373.778H242.879Z" fill="white" stroke="#174DA4" stroke-width="1.15371" stroke-miterlimit="10" stroke-linecap="round"/>
<path d="M252.973 381.643H212.459C211.209 377.105 207.036 373.778 202.094 373.778H242.609C247.551 373.778 251.704 377.105 252.973 381.643Z" fill="white" stroke="#174DA4" stroke-width="1.15371" stroke-miterlimit="10" stroke-linecap="round"/>
<path d="M248.474 402.506V445.558C248.474 449.558 245.244 452.788 241.244 452.788H144.524C140.525 452.788 137.294 449.558 137.294 445.558V402.506C137.294 398.506 140.525 395.276 144.524 395.276H241.244C245.244 395.276 248.474 398.506 248.474 402.506Z" stroke="#174DA4" stroke-width="1.15371" stroke-miterlimit="10" stroke-linecap="round"/>
<path d="M173.079 333.052C173.079 329.629 175.848 326.841 179.29 326.841H206.498C209.921 326.841 212.709 329.61 212.709 333.052" stroke="#174DA4" stroke-width="1.15371" stroke-miterlimit="10" stroke-linecap="round"/>
<path d="M173.079 423.176C173.079 419.754 175.848 416.965 179.29 416.965H206.498C209.921 416.965 212.709 419.734 212.709 423.176" stroke="#174DA4" stroke-width="1.15371" stroke-miterlimit="10" stroke-linecap="round"/>
<path d="M587.666 294.307H573.379V532.222H587.666V294.307Z" fill="white" stroke="#174DA4" stroke-width="1.15371" stroke-miterlimit="10" stroke-linecap="round"/>
<path d="M344.867 532.222H643.025" stroke="#174DA4" stroke-width="1.15371" stroke-miterlimit="10" stroke-linecap="round"/>
<path d="M164.445 258.311H155.812C155.812 258.311 143.486 206.951 132.66 205.278C121.835 203.605 121.277 223.372 121.277 223.372C121.277 223.372 121.469 193.318 148.524 197.433C175.598 201.548 164.445 258.311 164.445 258.311Z" fill="white" stroke="#174DA4" stroke-width="1.15371" stroke-miterlimit="10" stroke-linecap="round"/>
<path d="M134.872 198.741C134.872 198.741 159.542 189.626 160.657 257.541" stroke="#174DA4" stroke-width="1.15371" stroke-miterlimit="10" stroke-linecap="round"/>
<path d="M187.962 257.541H147.409V290.557H187.962V257.541Z" fill="#FE5244"/>
<path d="M196.499 274.059C193.922 275.174 190.846 275.04 187.981 273.79C185.866 272.867 183.866 271.348 182.251 269.271C180.02 266.387 178.52 262.445 178.52 257.542C178.52 245.658 169.06 238.198 165.176 253.927C164.907 255.023 164.657 256.215 164.445 257.542V257.503V257.426C164.445 257.388 164.445 257.33 164.464 257.272V257.195C164.541 256.215 164.83 253.311 165.714 249.812C166.368 247.216 167.349 244.331 168.81 241.659C169.541 240.332 170.387 239.063 171.387 237.928C173.963 234.967 177.501 232.891 182.328 232.891C191.211 232.891 197.711 243.351 200.191 253.773C202.364 262.829 201.479 271.886 196.499 274.059Z" fill="white" stroke="#174DA4" stroke-width="1.15371" stroke-miterlimit="10" stroke-linecap="round"/>
<path d="M171.406 237.928C171.406 237.928 189.212 225.257 194.442 274.424" stroke="#174DA4" stroke-width="1.15371" stroke-miterlimit="10" stroke-linecap="round"/>
<path d="M120.7 223.372C120.7 226.545 120.335 238.678 131.911 239.236C143.486 239.793 144.64 222.315 144.64 222.315C144.64 222.315 138.948 206.855 132.66 205.278C122.027 202.605 120.7 223.372 120.7 223.372Z" fill="#174DA4"/>
<path d="M178.52 257.541H164.445C167.695 237.178 178.52 244.831 178.52 257.541Z" fill="#174DA4"/>
<path opacity="0.4" d="M417.551 107.982V234.91C417.551 241.736 412.013 247.254 405.206 247.254H259.934C250.82 259.811 232.033 259.868 222.842 247.254L222.823 247.235C219.169 246.985 215.939 245.12 213.862 242.37L217.208 239.486L302.583 165.802L383.881 95.637H405.206C412.013 95.637 417.551 101.175 417.551 107.982Z" fill="white"/>
<path opacity="0.4" d="M196.499 274.636C193.942 275.789 190.846 275.616 187.981 274.366V290.557H158.042L182.27 269.655L188 264.714L192.365 260.945L200.806 253.773C203.268 264.271 201.902 272.155 196.499 274.636Z" fill="white"/>
<path d="M451.451 360.068V467.094H426.723L410.975 423.119L388.42 360.068H451.451Z" fill="#F18F9C"/>
<path d="M388.42 360.068H451.451V394.43L395.919 381.008L388.42 360.068Z" fill="#73325A"/>
<path d="M451.451 423.119V467.094H426.723L410.975 423.119C410.975 423.119 423.723 430.156 451.451 423.119Z" stroke="white" stroke-width="1.15371" stroke-miterlimit="10" stroke-linecap="round"/>
<path d="M423.839 433.444C425.389 433.444 426.646 432.188 426.646 430.637C426.646 429.087 425.389 427.83 423.839 427.83C422.288 427.83 421.031 429.087 421.031 430.637C421.031 432.188 422.288 433.444 423.839 433.444Z" stroke="white" stroke-width="1.15371" stroke-miterlimit="10" stroke-linecap="round"/>
<path d="M437.222 442.501C438.772 442.501 440.029 441.244 440.029 439.694C440.029 438.143 438.772 436.886 437.222 436.886C435.671 436.886 434.414 438.143 434.414 439.694C434.414 441.244 435.671 442.501 437.222 442.501Z" stroke="white" stroke-width="1.15371" stroke-miterlimit="10" stroke-linecap="round"/>
<path d="M447.182 432.444C448.733 432.444 449.989 431.188 449.989 429.637C449.989 428.087 448.733 426.83 447.182 426.83C445.632 426.83 444.375 428.087 444.375 429.637C444.375 431.188 445.632 432.444 447.182 432.444Z" stroke="white" stroke-width="1.15371" stroke-miterlimit="10" stroke-linecap="round"/>
<path d="M443.24 453.038C444.791 453.038 446.048 451.781 446.048 450.231C446.048 448.681 444.791 447.424 443.24 447.424C441.69 447.424 440.433 448.681 440.433 450.231C440.433 451.781 441.69 453.038 443.24 453.038Z" stroke="white" stroke-width="1.15371" stroke-miterlimit="10" stroke-linecap="round"/>
<path d="M426.646 447.923C428.196 447.923 429.453 446.667 429.453 445.116C429.453 443.566 428.196 442.309 426.646 442.309C425.095 442.309 423.838 443.566 423.838 445.116C423.838 446.667 425.095 447.923 426.646 447.923Z" stroke="white" stroke-width="1.15371" stroke-miterlimit="10" stroke-linecap="round"/>
<path d="M431.222 463.306C432.773 463.306 434.03 462.05 434.03 460.499C434.03 458.949 432.773 457.692 431.222 457.692C429.672 457.692 428.415 458.949 428.415 460.499C428.415 462.05 429.672 463.306 431.222 463.306Z" stroke="white" stroke-width="1.15371" stroke-miterlimit="10" stroke-linecap="round"/>
<path d="M463.142 487.054L446.182 522.261C443.779 527.934 438.222 531.625 432.049 531.625H410.417C404.879 531.625 401.514 526.011 403.629 520.896L425.377 468.44C426.588 465.248 428.723 462.595 431.395 460.73C434.087 458.865 437.318 457.807 440.721 457.807C445.451 457.807 450.143 461.018 453.258 464.575L460.796 472.709C464.276 476.67 465.18 482.227 463.142 487.054Z" fill="#1981DB"/>
<path d="M463.142 487.054L446.182 522.261C443.779 527.934 438.222 531.625 432.049 531.625H409.052C406.918 531.625 405.706 530.299 404.995 528.472H410.109C416.282 528.472 421.839 524.78 424.242 519.108L443.798 478.324C445.625 474.517 449.49 472.075 453.72 472.075C459.238 472.075 463.43 476.113 464.199 481.227C464.276 483.189 463.93 485.169 463.142 487.054Z" fill="white" stroke="#1981DB" stroke-width="1.15371" stroke-miterlimit="10" stroke-linejoin="round"/>
<path d="M459.238 471.017C457.2 469.902 454.739 469.094 452.585 469.094C448.451 469.094 444.624 471.498 442.836 475.228L422.589 517.454C420.012 523.549 414.051 527.491 407.417 527.491H403.687C403.495 527.126 403.36 526.741 403.225 526.338H407.417C413.59 526.338 419.127 522.665 421.531 516.993L421.55 516.973L441.817 474.728C443.798 470.594 448.028 467.94 452.604 467.94C454.066 467.94 455.815 468.421 457.315 468.94L459.238 471.017Z" fill="white"/>
<path d="M388.42 360.068L383.593 423.119L381.44 451.365C381.44 451.365 367.384 467.017 351.385 457.365L343.982 423.138L327.042 344.82C322.466 323.649 336.926 303.055 358.404 300.19L388.42 360.068Z" fill="#F18F9C"/>
<path d="M383.593 423.119L381.44 452.135C381.44 452.135 367.384 467.787 351.385 458.134L343.982 423.138C362.576 428.714 383.593 423.119 383.593 423.119Z" stroke="white" stroke-width="1.15371" stroke-miterlimit="10" stroke-linecap="round"/>
<path d="M361.5 440.559C363.05 440.559 364.307 439.302 364.307 437.752C364.307 436.201 363.05 434.944 361.5 434.944C359.949 434.944 358.692 436.201 358.692 437.752C358.692 439.302 359.949 440.559 361.5 440.559Z" stroke="white" stroke-width="1.15371" stroke-miterlimit="10" stroke-linecap="round"/>
<path d="M379.344 436.252C380.894 436.252 382.151 434.995 382.151 433.444C382.151 431.894 380.894 430.637 379.344 430.637C377.793 430.637 376.536 431.894 376.536 433.444C376.536 434.995 377.793 436.252 379.344 436.252Z" stroke="white" stroke-width="1.15371" stroke-miterlimit="10" stroke-linecap="round"/>
<path d="M350.732 432.444C352.282 432.444 353.539 431.188 353.539 429.637C353.539 428.087 352.282 426.83 350.732 426.83C349.181 426.83 347.925 428.087 347.925 429.637C347.925 431.188 349.181 432.444 350.732 432.444Z" stroke="white" stroke-width="1.15371" stroke-miterlimit="10" stroke-linecap="round"/>
<path d="M358.692 455.846C360.243 455.846 361.5 454.589 361.5 453.038C361.5 451.488 360.243 450.231 358.692 450.231C357.142 450.231 355.885 451.488 355.885 453.038C355.885 454.589 357.142 455.846 358.692 455.846Z" stroke="white" stroke-width="1.15371" stroke-miterlimit="10" stroke-linecap="round"/>
<path d="M371.787 450.231C373.338 450.231 374.595 448.974 374.595 447.424C374.595 445.873 373.338 444.616 371.787 444.616C370.237 444.616 368.98 445.873 368.98 447.424C368.98 448.974 370.237 450.231 371.787 450.231Z" stroke="white" stroke-width="1.15371" stroke-miterlimit="10" stroke-linecap="round"/>
<path d="M399.976 458.095L381.44 532.222H375.594C375.325 532.222 375.075 532.202 374.806 532.183C370.383 531.779 366.653 528.049 365.711 523.646L351.366 457.326C367.364 466.998 381.44 451.346 381.44 451.346L399.976 458.095Z" fill="#1981DB"/>
<path d="M400.918 496.13C404.822 475.516 405.899 459.768 399.169 458.499C392.439 457.23 380.459 470.902 376.556 491.515C372.652 512.128 374.691 530.356 381.421 531.625C388.151 532.914 397.015 516.762 400.918 496.13Z" fill="white" stroke="#1981DB" stroke-width="1.15371" stroke-miterlimit="10" stroke-linejoin="round"/>
<path d="M373.864 491.188C371.845 501.879 371.249 512.205 372.21 520.281C372.902 526.088 374.364 530.222 376.364 532.222H375.594C375.325 532.222 375.075 532.202 374.806 532.183C372.999 529.799 371.71 525.799 371.056 520.415C370.076 512.243 370.672 501.783 372.729 490.976C374.671 480.747 378.594 471.152 383.805 463.941C386.92 459.634 390.189 456.615 393.169 455.25L394.9 455.826C388.035 457.865 377.613 471.402 373.864 491.188Z" fill="white"/>
<path d="M358.404 300.171L446.124 291.134L533.807 315.727L533.057 327.38C531.865 345.762 516.02 360.068 497.599 360.068H388.439L358.404 300.171Z" fill="#FE5244"/>
<path d="M528.807 314.881C528.807 331.571 512.155 351.992 493.734 351.992H384.573" stroke="white" stroke-width="1.15371" stroke-miterlimit="10" stroke-linecap="round" stroke-linejoin="round"/>
<path d="M518.405 311.554C515.674 326.457 501.099 342.378 485.139 342.378H380.151" stroke="white" stroke-width="1.15371" stroke-miterlimit="10" stroke-linecap="round" stroke-linejoin="round"/>
<path d="M506.579 308.016C501.964 320.669 489.446 332.571 475.89 332.571H374.574" stroke="white" stroke-width="1.15371" stroke-miterlimit="10" stroke-linecap="round" stroke-linejoin="round"/>
<path d="M497.484 305.536C491.427 314.746 481.485 321.996 470.891 321.996H369.575" stroke="white" stroke-width="1.15371" stroke-miterlimit="10" stroke-linecap="round" stroke-linejoin="round"/>
<path d="M487.331 302.69C481.505 308.555 473.967 312.381 466.083 312.381H364.768" stroke="white" stroke-width="1.15371" stroke-miterlimit="10" stroke-linecap="round" stroke-linejoin="round"/>
<path d="M474.121 298.864C470.006 301.19 465.506 302.575 460.891 302.575H359.576" stroke="white" stroke-width="1.15371" stroke-miterlimit="10" stroke-linecap="round" stroke-linejoin="round"/>
<path d="M388.227 360.068L358.211 300.171" stroke="white" stroke-width="1.15371" stroke-miterlimit="10" stroke-linecap="round" stroke-linejoin="round"/>
<path d="M538.614 235.467C530.346 237.813 522.212 237.121 521.347 234.602C520.539 232.198 524.193 228.083 531.596 225.353C531.961 225.218 532.345 225.083 532.73 224.949C534.961 224.199 537.191 223.718 539.287 223.468C545.498 222.68 550.555 223.795 551.189 225.68C552.055 228.199 547.363 232.986 538.614 235.467Z" fill="white" stroke="#174DA4" stroke-width="1.15371" stroke-miterlimit="10" stroke-linejoin="round"/>
<path d="M533.384 291.538H530.211L521.885 235.332V235.294L521.674 233.89C522.077 231.333 526.077 227.718 533.134 225.372C536.653 224.199 540.152 223.68 543.133 223.622L546.171 231.948L546.459 232.737L556.073 259.099C561.842 274.847 550.17 291.538 533.384 291.538Z" fill="#F18F9C"/>
<path d="M546.363 232.544C544.344 233.813 541.729 234.986 538.614 235.871C531.461 237.89 524.212 237.063 521.885 235.332V235.294L521.674 233.89C522.077 231.333 526.077 227.718 533.134 225.372C536.653 224.199 540.152 223.68 543.133 223.622L546.363 232.544Z" fill="#73325A"/>
<path d="M430.396 245.293L420.301 270.405C415.32 282.808 403.283 290.941 389.9 290.941H254.204V278.52C254.204 275.52 256.05 272.828 258.857 271.77L272.798 266.483C274.067 266.002 275.394 265.752 276.74 265.752H292.565L382.132 256.714L397.592 221.315L430.396 245.293Z" fill="#F18F9C"/>
<path d="M268.818 274.116L258.3 278.097C256.185 278.904 254.781 280.923 254.781 283.192" stroke="#73325A" stroke-width="1.15371" stroke-miterlimit="10" stroke-linecap="round"/>
<path d="M268.818 280.462L258.3 284.442C256.185 285.25 254.781 287.269 254.781 289.538" stroke="#73325A" stroke-width="1.15371" stroke-miterlimit="10" stroke-linecap="round"/>
<path d="M268.818 286.577L258.3 290.365" stroke="#73325A" stroke-width="1.15371" stroke-miterlimit="10" stroke-linecap="round"/>
<path d="M267.722 268.617C267.722 268.617 277.567 243.485 280.72 243.908C283.874 244.331 271.99 267.002 271.99 267.002L267.722 268.617Z" fill="#FE5244"/>
<path d="M397.591 221.334L395.323 226.506L424.377 260.253L430.395 245.293L397.591 221.334Z" fill="#73325A"/>
<path d="M521.885 235.352L533.807 315.727L446.144 291.134L430.396 245.274L389.746 215.566L404.014 198.568C416.743 183.396 435.53 174.628 455.335 174.628H483.505C508.002 174.628 530.557 188.011 542.306 209.509L551.439 225.314C551.439 225.314 548.69 221.276 533.864 225.334C520.808 228.929 521.885 235.352 521.885 235.352Z" fill="#174DA4"/>
<path d="M430.395 244.908L434.952 225.141" stroke="white" stroke-width="1.15371" stroke-miterlimit="10" stroke-linecap="round" stroke-linejoin="round"/>
<path d="M531.596 296.96L516.77 204.797" stroke="white" stroke-width="1.15371" stroke-miterlimit="10" stroke-linecap="round" stroke-linejoin="round"/>
<path d="M446.125 290.768L533.615 315.727" stroke="white" stroke-width="1.15371" stroke-miterlimit="10" stroke-linecap="round" stroke-linejoin="round"/>
<path d="M450.855 161.783V174.705L473.66 174.512V151.707L450.855 161.783Z" fill="#F18F9C"/>
<path d="M475.506 147.727V148.073C475.506 151.534 472.891 154.342 469.429 154.342H468.083C467.218 157.764 459.527 161.764 454.066 161.764H447.701C440.74 161.764 435.414 155.515 436.549 148.631L436.856 146.766L434.972 145.708C433.895 145.093 433.587 143.689 434.337 142.689L438.414 137.305L439.298 131.998C440.01 127.633 442.875 124.076 446.682 122.326C448.182 139.228 463.103 141.228 467.045 141.459H469.237C472.698 141.459 475.506 144.266 475.506 147.727Z" fill="#F18F9C"/>
<path d="M465.411 149.381C465.411 146.65 467.622 144.439 470.352 144.439" stroke="#73325A" stroke-width="1.15371" stroke-miterlimit="10" stroke-linecap="round"/>
<path d="M444.567 141.632C445.108 141.632 445.547 140.616 445.547 139.363C445.547 138.11 445.108 137.094 444.567 137.094C444.025 137.094 443.586 138.11 443.586 139.363C443.586 140.616 444.025 141.632 444.567 141.632Z" fill="#73325A"/>
<path d="M443.067 132.344C443.067 132.344 445.778 132.075 448.567 135.921" stroke="#73325A" stroke-width="1.15371" stroke-miterlimit="10" stroke-linecap="round"/>
<path d="M467.045 141.459H469.237C472.698 141.459 475.506 144.266 475.506 147.727V148.073C475.506 151.534 472.891 154.342 469.43 154.342L467.949 155.38C461.719 159.38 453.104 175.109 455.22 186.242C457.604 198.76 468.507 201.548 478.582 199.625C488.658 197.702 496.003 191.837 493.619 179.3C493.35 177.82 492.908 176.339 492.35 174.878C492.523 174.936 492.677 174.993 492.85 175.051C504.964 178.358 519.193 178.743 523.116 169.282C527.038 159.822 526.154 150.458 514.367 145.574C507.521 142.728 498.215 142.747 491.004 144.708C494.638 132.075 488.177 118.019 476.313 116.615C457.681 114.404 446.99 122.095 446.701 122.307C446.682 124.537 448.201 140.363 467.045 141.459Z" fill="#73325A"/>
<path d="M491.485 144.266C489.966 149.208 486.831 154.495 481.736 158.091C481.736 158.091 490.735 164.033 492.85 175.07" stroke="white" stroke-width="1.15371" stroke-miterlimit="10" stroke-linecap="round" stroke-linejoin="round"/>
<path d="M496.715 143.843H491.619V138.748C491.619 136.075 493.773 133.921 496.446 133.921H496.715C499.387 133.921 501.541 136.075 501.541 138.748V139.017C501.56 141.67 499.387 143.843 496.715 143.843Z" stroke="#FE5244" stroke-width="1.15371" stroke-miterlimit="10" stroke-linejoin="round"/>
<path d="M494.849 149.073L491.581 143.882L496.772 140.613C499.368 138.978 502.81 139.748 504.444 142.343L504.752 142.824C506.387 145.42 505.617 148.862 503.022 150.496L502.541 150.804C499.907 152.438 496.484 151.669 494.849 149.073Z" stroke="#FE5244" stroke-width="1.15371" stroke-miterlimit="10" stroke-linejoin="round"/>
<path d="M464.738 158.342L468.372 154.861L471.929 158.88C473.679 160.899 473.448 163.956 471.429 165.687L471.218 165.86C469.199 167.61 466.141 167.379 464.411 165.36L464.238 165.149C462.488 163.149 462.719 160.091 464.738 158.342Z" stroke="#FE5244" stroke-width="1.15371" stroke-miterlimit="10" stroke-linejoin="round"/>
<path d="M470.045 160.841L468.41 154.938L474.313 153.304C477.275 152.477 480.332 154.207 481.159 157.169L481.313 157.726C482.139 160.687 480.409 163.745 477.448 164.572L476.89 164.725C473.929 165.533 470.871 163.783 470.045 160.841Z" stroke="#FE5244" stroke-width="1.15371" stroke-miterlimit="10" stroke-linejoin="round"/>
<path d="M417.57 374.855L384.074 531.625" stroke="#FFCF2D" stroke-width="1.15371" stroke-miterlimit="10" stroke-linecap="round"/>
<path d="M503.291 374.855L536.787 531.625" stroke="#FFCF2D" stroke-width="1.15371" stroke-miterlimit="10" stroke-linecap="round"/>
<path d="M391.496 496.822H528.904" stroke="#FFCF2D" stroke-width="1.15371" stroke-miterlimit="10" stroke-linecap="round"/>
<path d="M529.654 374.855H391.189C389.439 374.855 388.016 373.432 388.016 371.682V363.241C388.016 361.491 389.439 360.068 391.189 360.068H529.654C531.403 360.068 532.826 361.491 532.826 363.241V371.682C532.826 373.432 531.403 374.855 529.654 374.855Z" fill="white" stroke="#1981DB" stroke-width="1.15371" stroke-miterlimit="10" stroke-linejoin="round"/>
</svg>
