<svg width="121" height="73" viewBox="0 0 121 73" fill="none" xmlns="http://www.w3.org/2000/svg">
<path d="M10.8008 64.4073V62.3169H11.0417V63.0884H11.0621C11.0798 63.0614 11.1043 63.0266 11.1356 62.9845C11.1676 62.9416 11.2132 62.9035 11.2724 62.87C11.3322 62.836 11.4132 62.819 11.5153 62.819C11.6473 62.819 11.7637 62.852 11.8644 62.9181C11.9651 62.984 12.0437 63.0777 12.1002 63.1989C12.1567 63.3198 12.1849 63.4628 12.1849 63.6274C12.1849 63.7934 12.1567 63.9373 12.1002 64.0593C12.0437 64.1805 11.9655 64.2744 11.8654 64.341C11.7654 64.4071 11.65 64.4399 11.5194 64.4399C11.4187 64.4399 11.338 64.4234 11.2775 64.3901C11.2169 64.3558 11.1703 64.3175 11.1376 64.2746C11.105 64.231 11.0798 64.1951 11.0621 64.1663H11.0335V64.4073H10.8008ZM11.0376 63.6233C11.0376 63.7419 11.0549 63.8463 11.0897 63.9366C11.1244 64.0265 11.1751 64.0971 11.2417 64.1481C11.3084 64.1984 11.3901 64.2236 11.4867 64.2236C11.5874 64.2236 11.6715 64.197 11.7389 64.1441C11.8069 64.0902 11.8579 64.0181 11.892 63.9275C11.9267 63.8363 11.944 63.7349 11.944 63.6233C11.944 63.5131 11.927 63.4137 11.893 63.3253C11.8596 63.2362 11.8089 63.1658 11.7409 63.1141C11.6735 63.0616 11.5888 63.0355 11.4867 63.0355C11.3887 63.0355 11.3064 63.0602 11.2397 63.11C11.173 63.1589 11.1227 63.2276 11.0886 63.3162C11.0546 63.4039 11.0376 63.5064 11.0376 63.6233ZM12.6524 64.9954C12.6116 64.9954 12.5752 64.9918 12.5432 64.9851C12.5112 64.9788 12.4891 64.9729 12.4768 64.9666L12.5381 64.7544C12.5966 64.7693 12.6483 64.7748 12.6932 64.7707C12.7381 64.7666 12.778 64.7465 12.8127 64.7106C12.8481 64.6751 12.8804 64.6176 12.9097 64.5379L12.9546 64.4155L12.3748 62.8396H12.6361L13.0689 64.0887H13.0852L13.518 62.8396H13.7793L13.1138 64.6361C13.0838 64.717 13.0468 64.7839 13.0025 64.837C12.9583 64.8907 12.9069 64.9307 12.8484 64.9566C12.7906 64.9824 12.7252 64.9954 12.6524 64.9954Z" fill="#19345F"/>
<path d="M111.885 20.2083V38.2022C111.885 39.0549 110.96 39.5891 110.223 39.1627L94.6384 30.1658L79.0543 21.1689C78.3165 20.7425 78.3165 19.6766 79.0543 19.2502L94.6384 10.2533L110.223 1.25633C110.96 0.82996 111.885 1.36412 111.885 2.21687V20.2107V20.2083Z" fill="#EF6236"/>
<path d="M55.3118 20.3448V24.7044C57.4916 21.2695 60.7948 19.552 65.3555 19.552C73.483 19.552 78.5036 24.8385 78.5036 33.6247V54.239H68.4599V35.1457C68.4599 30.7191 66.0813 28.4052 62.3829 28.4052C58.0234 28.4052 55.7095 32.1707 55.7095 36.5973V54.2366H45.6658V20.3448H55.3118Z" fill="#19345F"/>
<path d="M45.4546 36.8632C45.4546 46.8398 37.8565 54.6366 27.2859 54.6366C16.7152 54.6366 9.11719 46.8398 9.11719 36.8632C9.11719 26.8865 16.7152 19.1567 27.2859 19.1567C37.8565 19.1567 45.4546 26.8219 45.4546 36.8632ZM19.2902 36.8632C19.2902 42.1497 22.7252 45.7164 27.2835 45.7164C31.8419 45.7164 35.2767 42.1473 35.2767 36.8632C35.2767 31.579 31.8419 28.0746 27.2835 28.0746C22.7252 28.0746 19.2902 31.5766 19.2902 36.8632Z" fill="#19345F"/>
<path d="M98.1312 46.1116C93.6375 46.1116 89.6732 43.8648 89.1462 39.3064H111.742C111.787 39.11 111.837 38.8848 111.885 38.6525V30.7526C110.268 23.7798 104.421 19.1567 96.2149 19.1567C86.1712 19.1567 78.772 26.9536 78.772 36.9302C78.772 46.9068 86.1712 54.6366 97.5347 54.6366C103.085 54.6366 107.578 53.0509 111.871 49.0866L106.584 42.612C104.8 44.4612 101.894 46.114 98.1264 46.114L98.1312 46.1116ZM96.0832 27.3488C99.5852 27.3488 102.359 29.5286 102.558 33.0306V33.0977H89.0145C89.4768 29.3969 92.3847 27.3488 96.0832 27.3488Z" fill="#19345F"/>
<mask id="mask0_97_6" style="mask-type:luminance" maskUnits="userSpaceOnUse" x="17" y="55" width="27" height="15">
<path d="M43.7327 55.614H17.1443V69.9861H43.7327V55.614Z" fill="white"/>
</mask>
<g mask="url(#mask0_97_6)">
<path d="M19.303 61.7516C19.4886 61.8671 19.6344 62.0367 19.7209 62.2374V61.616H20.766V65.0481H19.7209V64.4267C19.6344 64.6275 19.4885 64.7968 19.303 64.9125C19.0992 65.0354 18.8644 65.0974 18.6265 65.0907C18.3582 65.0946 18.0944 65.021 17.8669 64.8785C17.636 64.7288 17.4524 64.5166 17.3374 64.2665C17.2097 63.9709 17.1438 63.6523 17.1438 63.3302C17.1438 63.0082 17.2097 62.6894 17.3374 62.3938C17.453 62.1449 17.6365 61.9337 17.8669 61.7847C18.0945 61.6422 18.3584 61.5684 18.6269 61.5727C18.8647 61.5665 19.0994 61.6285 19.303 61.7516ZM18.4206 62.7165C18.2871 62.8935 18.215 63.1093 18.215 63.3311C18.215 63.5529 18.2871 63.7687 18.4206 63.946C18.566 64.089 18.762 64.1685 18.9659 64.1676C19.1698 64.1664 19.3649 64.0845 19.5087 63.94C19.646 63.7661 19.7207 63.5508 19.7207 63.3292C19.7207 63.1076 19.646 62.8925 19.5087 62.7186C19.4391 62.6448 19.3546 62.5866 19.2608 62.5481C19.167 62.5093 19.066 62.4911 18.9646 62.4942C18.8633 62.4903 18.7622 62.5081 18.6683 62.5466C18.5744 62.585 18.4899 62.6432 18.4204 62.7172L18.4206 62.7165Z" fill="#19345F"/>
<path d="M22.5734 60.4963V65.048H21.522V60.4963H22.5734Z" fill="#19345F"/>
<path d="M25.2733 64.1439V65.0482H24.8005C24.4617 65.069 24.1272 64.9627 23.8627 64.7497C23.6394 64.5509 23.5276 64.222 23.5275 63.7626V62.5019H23.0657V61.6159H23.5267V60.7729H24.5781V61.6154H25.2668V62.5019H24.5781V63.7813C24.5726 63.8316 24.5771 63.8826 24.5913 63.9315C24.6056 63.9801 24.6293 64.0254 24.6611 64.0649C24.7408 64.1262 24.8408 64.1547 24.9408 64.1449H25.2733V64.1439Z" fill="#19345F"/>
<path d="M29.1219 63.5227H26.7422C26.7339 63.7265 26.8044 63.9258 26.939 64.0794C27.0001 64.1359 27.0717 64.1802 27.1497 64.2092C27.2278 64.2382 27.3108 64.2514 27.394 64.2485C27.5325 64.2538 27.6689 64.2126 27.7813 64.1316C27.8814 64.0571 27.953 63.9507 27.9842 63.83H29.0973C29.0543 64.0674 28.9529 64.2904 28.8023 64.4787C28.6475 64.6717 28.4496 64.8255 28.2244 64.9278C27.9586 65.0433 27.6706 65.0986 27.381 65.0902C27.0914 65.0816 26.8072 65.0095 26.5486 64.8789C26.2895 64.7388 26.0769 64.5261 25.9368 64.2669C25.7917 63.9761 25.7159 63.6559 25.7153 63.3308C25.7148 63.006 25.7895 62.6853 25.9336 62.3942C26.0732 62.1353 26.286 61.9236 26.5453 61.7851C26.824 61.6462 27.1311 61.5736 27.4425 61.5729C27.7539 61.5724 28.0613 61.6438 28.3405 61.7818C28.5929 61.9157 28.801 62.1197 28.9397 62.3693C29.0849 62.6359 29.1581 62.9361 29.1521 63.2396C29.1517 63.3347 29.1415 63.4295 29.1219 63.5227ZM27.9076 62.5725C27.7803 62.4587 27.6142 62.3981 27.4436 62.4033C27.2675 62.3971 27.0959 62.4587 26.964 62.5756C26.8287 62.7088 26.7514 62.8901 26.7488 63.08H28.0886C28.0975 62.9873 28.0859 62.8939 28.0547 62.806C28.0234 62.7183 27.9732 62.6386 27.9076 62.5725Z" fill="#19345F"/>
<path d="M31.2892 61.7636C31.4925 61.6414 31.7253 61.5777 31.9624 61.5789V62.7045H31.661C31.431 62.6903 31.2028 62.7528 31.0124 62.8827C30.9295 62.9581 30.8655 63.0518 30.8254 63.1565C30.7854 63.2611 30.7704 63.3737 30.7816 63.4853V65.0483H29.7302V61.6158H30.7816V62.2613C30.9084 62.057 31.0825 61.8862 31.2892 61.7636Z" fill="#19345F"/>
<path d="M33.9939 61.7636C34.1972 61.6414 34.4301 61.5777 34.6672 61.5789V62.7045H34.3666C34.1366 62.6903 33.9084 62.7528 33.7179 62.8827C33.635 62.9581 33.5711 63.0518 33.5308 63.1565C33.4908 63.2611 33.476 63.3737 33.4873 63.4853V65.0483H32.4358V61.6158H33.4873V62.2613C33.6137 62.0572 33.7876 61.8864 33.9939 61.7636Z" fill="#19345F"/>
<path d="M37.1213 61.7516C37.307 61.8671 37.4529 62.0367 37.5393 62.2374V61.616H38.5844V65.0481H37.5396V64.4267C37.4531 64.6275 37.3072 64.7968 37.1218 64.9125C36.918 65.0354 36.6832 65.0974 36.4454 65.0907C36.1771 65.0948 35.9134 65.021 35.686 64.8785C35.4551 64.7288 35.2714 64.5166 35.1567 64.2665C35.0288 63.9709 34.9629 63.6523 34.9629 63.3302C34.9629 63.0082 35.0288 62.6894 35.1567 62.3938C35.2721 62.1449 35.4556 61.9337 35.686 61.7847C35.9134 61.6422 36.1771 61.5686 36.4454 61.5727C36.6832 61.5665 36.9177 61.6285 37.1213 61.7516ZM36.2389 62.7165C36.1055 62.8935 36.0334 63.1093 36.0334 63.3311C36.0334 63.5529 36.1055 63.7687 36.2389 63.946C36.3843 64.089 36.5805 64.1685 36.7843 64.1676C36.9882 64.1664 37.1834 64.0845 37.3271 63.94C37.4644 63.7661 37.5391 63.5508 37.5391 63.3292C37.5391 63.1076 37.4644 62.8925 37.3271 62.7186C37.2574 62.6448 37.1728 62.5866 37.0792 62.5481C36.9853 62.5093 36.8844 62.4911 36.7831 62.4942C36.6816 62.4901 36.5802 62.5078 36.4863 62.5464C36.3922 62.585 36.3076 62.6432 36.2379 62.7172L36.2389 62.7165Z" fill="#19345F"/>
<path d="M40.8593 61.3624C42.446 61.3624 43.7325 60.0756 43.7325 58.4882C43.7325 56.9008 42.446 55.614 40.8593 55.614C39.2724 55.614 37.9861 56.9008 37.9861 58.4882C37.9861 60.0756 39.2724 61.3624 40.8593 61.3624Z" fill="#EF6335"/>
<path d="M18.8319 67.2087C18.9792 67.3206 19.0856 67.4779 19.1345 67.6564V67.0643H19.299V69.0505H19.1345V68.4572C19.0855 68.6356 18.9792 68.793 18.8319 68.9051C18.6734 69.0218 18.4802 69.0816 18.2835 69.0752C18.1117 69.0788 17.942 69.0364 17.7919 68.9528C17.6481 68.8697 17.5318 68.7465 17.4573 68.598C17.3779 68.4284 17.3367 68.2433 17.3367 68.0559C17.3367 67.8684 17.3779 67.6835 17.4573 67.5136C17.5321 67.3661 17.6484 67.2434 17.7919 67.1608C17.942 67.0772 18.1117 67.0351 18.2835 67.0384C18.4803 67.0322 18.6734 67.0921 18.8319 67.2087ZM17.7259 67.419C17.5716 67.5936 17.4921 67.8222 17.5046 68.055C17.4916 68.2888 17.5703 68.5185 17.724 68.695C17.801 68.7741 17.894 68.8359 17.9967 68.8761C18.0995 68.9166 18.2096 68.9346 18.3198 68.9288C18.4671 68.931 18.6123 68.8938 18.7404 68.821C18.8648 68.7489 18.9657 68.6423 19.0309 68.5139C19.1025 68.3719 19.1383 68.2143 19.1351 68.055C19.1385 67.8964 19.1027 67.7395 19.0309 67.598C18.9653 67.4705 18.8644 67.3644 18.7402 67.2928C18.6121 67.22 18.4669 67.1826 18.3196 67.185C18.2098 67.1797 18.1 67.1979 17.9976 67.2382C17.8953 67.2784 17.8026 67.34 17.7257 67.4188L17.7259 67.419Z" fill="#19345F"/>
<path d="M21.3981 67.234C21.56 67.3621 21.6672 67.547 21.698 67.7514H21.5261C21.5141 67.669 21.486 67.5899 21.4433 67.5183C21.4006 67.4469 21.3442 67.3847 21.2774 67.3351C21.1308 67.2297 20.9534 67.1755 20.7729 67.1815C20.6355 67.1798 20.4998 67.2124 20.378 67.2761C20.2551 67.343 20.1546 67.4448 20.0893 67.5688C20.0171 67.7207 19.9796 67.887 19.9796 68.0551C19.9796 68.2235 20.0171 68.3897 20.0893 68.5416C20.1547 68.6654 20.2551 68.7672 20.378 68.8343C20.4998 68.898 20.6355 68.9306 20.7729 68.9289C20.9534 68.9349 21.1308 68.8808 21.2774 68.7754C21.3442 68.7258 21.4006 68.6635 21.4433 68.5921C21.486 68.5205 21.5141 68.4415 21.5261 68.3591H21.698C21.668 68.5646 21.5607 68.7512 21.3981 68.8803C21.2199 69.0156 21.0002 69.0849 20.7767 69.0758C20.6025 69.0794 20.4305 69.037 20.2778 68.9534C20.1321 68.8712 20.0134 68.7486 19.9359 68.6003C19.8542 68.4309 19.8118 68.2453 19.8118 68.0573C19.8118 67.8692 19.8542 67.6836 19.9359 67.514C20.0134 67.366 20.1322 67.2433 20.2778 67.1614C20.4306 67.0778 20.6025 67.0354 20.7767 67.0388C21.0001 67.0297 21.2198 67.0986 21.3981 67.234Z" fill="#19345F"/>
<path d="M23.6137 67.2087C23.761 67.3206 23.8673 67.4779 23.9162 67.6564V67.0643H24.0807V69.0505H23.9162V68.4572C23.8673 68.6356 23.7609 68.793 23.6137 68.9051C23.4551 69.0218 23.262 69.0816 23.0653 69.0752C22.8934 69.0788 22.7237 69.0364 22.5736 68.9528C22.4298 68.8697 22.3135 68.7465 22.2391 68.598C22.1596 68.4284 22.1184 68.2433 22.1184 68.0559C22.1184 67.8684 22.1596 67.6835 22.2391 67.5136C22.3138 67.3661 22.4301 67.2434 22.5736 67.1608C22.7238 67.0772 22.8934 67.0351 23.0653 67.0384C23.262 67.0322 23.4551 67.0921 23.6137 67.2087ZM22.5078 67.419C22.3535 67.5936 22.274 67.8222 22.2865 68.055C22.2735 68.2888 22.3522 68.5185 22.5059 68.695C22.5829 68.7741 22.6759 68.8359 22.7786 68.8761C22.8814 68.9166 22.9915 68.9346 23.1018 68.9288C23.2491 68.931 23.3942 68.8938 23.5223 68.821C23.647 68.7489 23.748 68.6423 23.813 68.5139C23.8847 68.3717 23.9204 68.214 23.9172 68.055C23.9206 67.8962 23.8848 67.7393 23.813 67.598C23.7474 67.4703 23.6465 67.3642 23.5223 67.2926C23.3943 67.2197 23.2491 67.1826 23.1018 67.1848C22.9918 67.1795 22.8819 67.1977 22.7795 67.2379C22.6771 67.2784 22.5843 67.34 22.5074 67.4188L22.5078 67.419Z" fill="#19345F"/>
<path d="M26.0885 67.2083C26.2358 67.3204 26.3422 67.4778 26.3911 67.6563V66.3434H26.5556V69.0494H26.3911V68.457C26.3421 68.6355 26.2358 68.7929 26.0885 68.905C25.93 69.0216 25.7368 69.0815 25.5401 69.075C25.3683 69.0786 25.1986 69.0362 25.0484 68.9526C24.9047 68.8695 24.7883 68.7464 24.7139 68.5979C24.6344 68.4283 24.5933 68.2431 24.5933 68.0558C24.5933 67.8683 24.6344 67.6833 24.7139 67.5135C24.7887 67.3657 24.9049 67.2433 25.0484 67.1607C25.1986 67.0771 25.3683 67.0349 25.5401 67.0383C25.7368 67.032 25.9299 67.0919 26.0885 67.2083ZM24.9826 67.4187C24.8283 67.5935 24.7489 67.8218 24.7614 68.0549C24.7484 68.2884 24.8271 68.5181 24.9808 68.6947C25.0578 68.7737 25.1507 68.8355 25.2535 68.876C25.3562 68.9162 25.4664 68.9342 25.5766 68.9284C25.7239 68.9306 25.8691 68.8935 25.9972 68.8207C26.1218 68.7488 26.2228 68.642 26.2878 68.5136C26.3595 68.3713 26.3953 68.2137 26.392 68.0546C26.3954 67.8961 26.3596 67.7389 26.2878 67.5976C26.2223 67.4699 26.1214 67.364 25.9972 67.2922C25.8691 67.2194 25.7239 67.1822 25.5766 67.1844C25.4667 67.1791 25.3569 67.1973 25.2545 67.2378C25.1521 67.2781 25.0595 67.3399 24.9826 67.4187Z" fill="#19345F"/>
<path d="M28.5302 68.7845C28.5972 68.7354 28.6537 68.6734 28.6964 68.6023C28.7391 68.5309 28.7671 68.4518 28.7789 68.3697H28.9508C28.9199 68.5718 28.8133 68.7548 28.6527 68.8818C28.4749 69.0159 28.2559 69.0844 28.0333 69.0753C27.8591 69.0787 27.6871 69.0365 27.5344 68.9527C27.3887 68.8708 27.2699 68.7481 27.1925 68.5999C27.1108 68.4305 27.0684 68.2449 27.0684 68.0566C27.0684 67.8686 27.1108 67.6829 27.1925 67.5136C27.27 67.3655 27.3888 67.2429 27.5344 67.1607C27.6872 67.0771 27.8591 67.035 28.0333 67.0383C28.2075 67.0335 28.3798 67.0759 28.5321 67.1607C28.6659 67.2364 28.7761 67.3478 28.8502 67.4824C28.9214 67.613 28.9585 67.7596 28.958 67.9083C28.9574 67.9735 28.9511 68.0382 28.9391 68.1021H27.232C27.2288 68.265 27.2684 68.4257 27.347 68.5682C27.4142 68.687 27.5145 68.7836 27.6357 68.8461C27.7565 68.9065 27.8899 68.9371 28.0249 68.9357C28.2054 68.9424 28.383 68.8892 28.5302 68.7845ZM27.6382 67.2649C27.5167 67.3279 27.4159 67.4245 27.3476 67.543C27.2689 67.6836 27.2293 67.8427 27.2326 68.0037H28.7972C28.8116 67.8439 28.7799 67.6834 28.7059 67.5411C28.6413 67.4216 28.5417 67.3246 28.4205 67.2633C28.2986 67.2038 28.1647 67.1734 28.0292 67.1737C27.8936 67.1739 27.7599 67.2053 27.6382 67.2649Z" fill="#19345F"/>
<path d="M32.389 67.2434C32.541 67.4233 32.6164 67.6556 32.5991 67.8906V69.05H32.4384V67.8978C32.4518 67.7028 32.3918 67.5098 32.2703 67.3567C32.2117 67.2939 32.1401 67.2448 32.0606 67.2127C31.981 67.1804 31.8953 67.166 31.8096 67.1703C31.7157 67.1663 31.6221 67.1828 31.5353 67.2187C31.4484 67.2547 31.3705 67.309 31.307 67.3783C31.1696 67.5524 31.1021 67.7716 31.1179 67.9929V69.0497H30.9571V67.8976C30.9707 67.7024 30.9099 67.5091 30.7869 67.3567C30.7279 67.2939 30.656 67.2448 30.5761 67.2125C30.4963 67.1804 30.4104 67.1658 30.3244 67.1701C30.2311 67.1663 30.1381 67.183 30.052 67.219C29.9658 67.2549 29.8885 67.3093 29.8255 67.3783C29.6881 67.5522 29.6207 67.7713 29.6365 67.9927V69.0495H29.4719V67.0633H29.6365V67.5788C29.6722 67.412 29.7679 67.2645 29.9054 67.1636C30.0396 67.0695 30.2002 67.0202 30.3641 67.023C30.5317 67.0187 30.6957 67.0709 30.8301 67.1713C30.9674 67.2812 31.0592 67.4381 31.0878 67.6118C31.1221 67.4358 31.2205 67.2789 31.3639 67.1713C31.503 67.0721 31.6702 67.0202 31.841 67.023C31.9427 67.019 32.0441 67.0367 32.1385 67.0745C32.233 67.1126 32.3183 67.1701 32.389 67.2434Z" fill="#19345F"/>
<path d="M33.1365 67.064L33.8822 68.8303L34.5732 67.064H34.7557L33.6043 69.9858H33.4139L33.794 69.0387L32.9531 67.064H33.1365Z" fill="#19345F"/>
</g>
</svg>
