<svg width="41" height="41" viewBox="0 0 41 41" fill="none" xmlns="http://www.w3.org/2000/svg">
<path opacity="0.2" d="M22.0266 5.50001V34.25H7.02661V13.8359C7.02648 13.6301 7.07718 13.4274 7.17422 13.2459C7.27126 13.0643 7.41163 12.9096 7.58286 12.7953L20.0829 4.46251C20.2709 4.33703 20.4895 4.2649 20.7153 4.25382C20.9412 4.24274 21.1658 4.29311 21.3652 4.39957C21.5647 4.50604 21.7315 4.6646 21.848 4.85839C21.9645 5.05217 22.0262 5.27392 22.0266 5.50001Z" fill="#F37524"/>
<path d="M38.2766 33H35.7766V15.5C35.7766 14.837 35.5132 14.2011 35.0444 13.7323C34.5755 13.2634 33.9397 13 33.2766 13H23.2766V5.50004C23.2769 5.04732 23.1543 4.60303 22.9218 4.21457C22.6893 3.82611 22.3557 3.50807 21.9566 3.2944C21.5575 3.08072 21.1078 2.97943 20.6556 3.00134C20.2034 3.02325 19.7657 3.16753 19.3891 3.41879L6.88911 11.75C6.5462 11.9788 6.26519 12.2888 6.07109 12.6525C5.87699 13.0162 5.77583 13.4222 5.77661 13.8344V33H3.27661C2.94509 33 2.62715 33.1317 2.39273 33.3662C2.15831 33.6006 2.02661 33.9185 2.02661 34.25C2.02661 34.5816 2.15831 34.8995 2.39273 35.1339C2.62715 35.3683 2.94509 35.5 3.27661 35.5H38.2766C38.6081 35.5 38.9261 35.3683 39.1605 35.1339C39.3949 34.8995 39.5266 34.5816 39.5266 34.25C39.5266 33.9185 39.3949 33.6006 39.1605 33.3662C38.9261 33.1317 38.6081 33 38.2766 33ZM33.2766 15.5V33H23.2766V15.5H33.2766ZM8.27661 13.8344L20.7766 5.50004V33H8.27661V13.8344ZM18.2766 18V20.5C18.2766 20.8316 18.1449 21.1495 17.9105 21.3839C17.6761 21.6183 17.3581 21.75 17.0266 21.75C16.6951 21.75 16.3771 21.6183 16.1427 21.3839C15.9083 21.1495 15.7766 20.8316 15.7766 20.5V18C15.7766 17.6685 15.9083 17.3506 16.1427 17.1162C16.3771 16.8817 16.6951 16.75 17.0266 16.75C17.3581 16.75 17.6761 16.8817 17.9105 17.1162C18.1449 17.3506 18.2766 17.6685 18.2766 18ZM13.2766 18V20.5C13.2766 20.8316 13.1449 21.1495 12.9105 21.3839C12.6761 21.6183 12.3581 21.75 12.0266 21.75C11.6951 21.75 11.3771 21.6183 11.1427 21.3839C10.9083 21.1495 10.7766 20.8316 10.7766 20.5V18C10.7766 17.6685 10.9083 17.3506 11.1427 17.1162C11.3771 16.8817 11.6951 16.75 12.0266 16.75C12.3581 16.75 12.6761 16.8817 12.9105 17.1162C13.1449 17.3506 13.2766 17.6685 13.2766 18ZM13.2766 26.75V29.25C13.2766 29.5816 13.1449 29.8995 12.9105 30.1339C12.6761 30.3683 12.3581 30.5 12.0266 30.5C11.6951 30.5 11.3771 30.3683 11.1427 30.1339C10.9083 29.8995 10.7766 29.5816 10.7766 29.25V26.75C10.7766 26.4185 10.9083 26.1006 11.1427 25.8662C11.3771 25.6317 11.6951 25.5 12.0266 25.5C12.3581 25.5 12.6761 25.6317 12.9105 25.8662C13.1449 26.1006 13.2766 26.4185 13.2766 26.75ZM18.2766 26.75V29.25C18.2766 29.5816 18.1449 29.8995 17.9105 30.1339C17.6761 30.3683 17.3581 30.5 17.0266 30.5C16.6951 30.5 16.3771 30.3683 16.1427 30.1339C15.9083 29.8995 15.7766 29.5816 15.7766 29.25V26.75C15.7766 26.4185 15.9083 26.1006 16.1427 25.8662C16.3771 25.6317 16.6951 25.5 17.0266 25.5C17.3581 25.5 17.6761 25.6317 17.9105 25.8662C18.1449 26.1006 18.2766 26.4185 18.2766 26.75Z" fill="#F37524"/>
</svg>
