<svg width="41" height="41" viewBox="0 0 41 41" fill="none" xmlns="http://www.w3.org/2000/svg">
<path opacity="0.2" d="M30.7766 13V28H17.0266C18.0155 28 18.9822 27.7068 19.8045 27.1573C20.6267 26.6079 21.2676 25.827 21.646 24.9134C22.0244 23.9998 22.1235 22.9945 21.9305 22.0245C21.7376 21.0546 21.2614 20.1637 20.5621 19.4645C19.8629 18.7652 18.972 18.289 18.0021 18.0961C17.0322 17.9031 16.0268 18.0022 15.1132 18.3806C14.1996 18.759 13.4187 19.3999 12.8693 20.2221C12.3199 21.0444 12.0266 22.0111 12.0266 23H10.7766V13H30.7766Z" fill="#F37524"/>
<path d="M34.5266 6.75H7.02661C6.36357 6.75 5.72769 7.01339 5.25884 7.48223C4.79 7.95107 4.52661 8.58696 4.52661 9.25V31.75C4.52661 32.413 4.79 33.0489 5.25884 33.5178C5.72769 33.9866 6.36357 34.25 7.02661 34.25H9.1188C9.35537 34.2501 9.58711 34.183 9.78708 34.0566C9.98706 33.9302 10.1471 33.7497 10.2485 33.5359C10.8563 32.2526 11.816 31.1682 13.0159 30.4089C14.2158 29.6495 15.6066 29.2464 17.0266 29.2464C18.4466 29.2464 19.8374 29.6495 21.0373 30.4089C22.2372 31.1682 23.1969 32.2526 23.8047 33.5359C23.9062 33.7497 24.0662 33.9302 24.2661 34.0566C24.4661 34.183 24.6979 34.2501 24.9344 34.25H34.5266C35.1897 34.25 35.8255 33.9866 36.2944 33.5178C36.7632 33.0489 37.0266 32.413 37.0266 31.75V9.25C37.0266 8.58696 36.7632 7.95107 36.2944 7.48223C35.8255 7.01339 35.1897 6.75 34.5266 6.75ZM13.2766 23C13.2766 22.2583 13.4965 21.5333 13.9086 20.9166C14.3207 20.2999 14.9063 19.8193 15.5915 19.5355C16.2768 19.2516 17.0308 19.1774 17.7582 19.3221C18.4856 19.4667 19.1538 19.8239 19.6783 20.3483C20.2027 20.8728 20.5599 21.541 20.7046 22.2684C20.8493 22.9958 20.775 23.7498 20.4912 24.4351C20.2073 25.1203 19.7267 25.706 19.11 26.118C18.4933 26.5301 17.7683 26.75 17.0266 26.75C16.032 26.75 15.0782 26.3549 14.375 25.6517C13.6717 24.9484 13.2766 23.9946 13.2766 23ZM34.5266 31.75H25.6875C24.6437 29.9553 23.0702 28.5276 21.1829 27.6625C22.1291 26.82 22.7969 25.7097 23.0978 24.479C23.3987 23.2483 23.3184 21.9552 22.8677 20.7711C22.4169 19.587 21.6169 18.5679 20.5738 17.8489C19.5306 17.1298 18.2936 16.7447 17.0266 16.7447C15.7596 16.7447 14.5226 17.1298 13.4794 17.8489C12.4363 18.5679 11.6363 19.587 11.1855 20.7711C10.7348 21.9552 10.6545 23.2483 10.9554 24.479C11.2563 25.7097 11.9241 26.82 12.8704 27.6625C10.983 28.5276 9.40953 29.9553 8.36567 31.75H7.02661V9.25H34.5266V31.75ZM9.52661 15.5V13C9.52661 12.6685 9.65831 12.3505 9.89273 12.1161C10.1271 11.8817 10.4451 11.75 10.7766 11.75H30.7766C31.1081 11.75 31.4261 11.8817 31.6605 12.1161C31.8949 12.3505 32.0266 12.6685 32.0266 13V28C32.0266 28.3315 31.8949 28.6495 31.6605 28.8839C31.4261 29.1183 31.1081 29.25 30.7766 29.25H28.2766C27.9451 29.25 27.6271 29.1183 27.3927 28.8839C27.1583 28.6495 27.0266 28.3315 27.0266 28C27.0266 27.6685 27.1583 27.3505 27.3927 27.1161C27.6271 26.8817 27.9451 26.75 28.2766 26.75H29.5266V14.25H12.0266V15.5C12.0266 15.8315 11.8949 16.1495 11.6605 16.3839C11.4261 16.6183 11.1081 16.75 10.7766 16.75C10.4451 16.75 10.1271 16.6183 9.89273 16.3839C9.65831 16.1495 9.52661 15.8315 9.52661 15.5Z" fill="#F37524"/>
</svg>
