<svg width="42" height="41" viewBox="0 0 42 41" fill="none" xmlns="http://www.w3.org/2000/svg">
<path opacity="0.2" d="M20.7765 4.05054C17.4206 4.05054 14.2021 5.38366 11.8291 7.75664C9.45617 10.1296 8.12305 13.3481 8.12305 16.704C8.12305 28.092 20.7765 36.9494 20.7765 36.9494C20.7765 36.9494 33.4299 28.092 33.4299 16.704C33.4299 13.3481 32.0968 10.1296 29.7238 7.75664C27.3508 5.38366 24.1324 4.05054 20.7765 4.05054ZM20.7765 21.7653C19.7754 21.7653 18.7969 21.4685 17.9645 20.9123C17.1322 20.3562 16.4835 19.5657 16.1004 18.6409C15.7173 17.716 15.6171 16.6983 15.8124 15.7165C16.0076 14.7347 16.4897 13.8329 17.1975 13.125C17.9054 12.4172 18.8072 11.9351 19.7891 11.7398C20.7709 11.5446 21.7885 11.6448 22.7134 12.0279C23.6382 12.4109 24.4287 13.0597 24.9848 13.892C25.541 14.7244 25.8378 15.7029 25.8378 16.704C25.8378 18.0463 25.3046 19.3337 24.3554 20.2829C23.4062 21.2321 22.1188 21.7653 20.7765 21.7653Z" fill="#F37524"/>
<path d="M32.1645 35.6841H24.3415C25.6557 34.5107 26.895 33.256 28.0522 31.9276C32.3939 26.9342 34.6952 21.6704 34.6952 16.7039C34.6952 13.0124 33.2288 9.47215 30.6185 6.86187C28.0082 4.25159 24.4679 2.78516 20.7764 2.78516C17.0849 2.78516 13.5447 4.25159 10.9344 6.86187C8.3241 9.47215 6.85767 13.0124 6.85767 16.7039C6.85767 21.6704 9.15268 26.9342 13.5007 31.9276C14.6579 33.256 15.8972 34.5107 17.2113 35.6841H9.38835C9.05276 35.6841 8.73092 35.8174 8.49362 36.0547C8.25632 36.292 8.12301 36.6138 8.12301 36.9494C8.12301 37.285 8.25632 37.6068 8.49362 37.8441C8.73092 38.0814 9.05276 38.2148 9.38835 38.2148H32.1645C32.5001 38.2148 32.822 38.0814 33.0593 37.8441C33.2966 37.6068 33.4299 37.285 33.4299 36.9494C33.4299 36.6138 33.2966 36.292 33.0593 36.0547C32.822 35.8174 32.5001 35.6841 32.1645 35.6841ZM9.38835 16.7039C9.38835 13.6836 10.5882 10.787 12.7238 8.65133C14.8595 6.51565 17.7561 5.31584 20.7764 5.31584C23.7967 5.31584 26.6933 6.51565 28.829 8.65133C30.9647 10.787 32.1645 13.6836 32.1645 16.7039C32.1645 25.7559 23.391 33.3116 20.7764 35.3677C18.1619 33.3116 9.38835 25.7559 9.38835 16.7039ZM27.1031 16.7039C27.1031 15.4526 26.7321 14.2294 26.0369 13.189C25.3417 12.1486 24.3536 11.3377 23.1976 10.8588C22.0415 10.38 20.7694 10.2547 19.5422 10.4988C18.3149 10.7429 17.1876 11.3455 16.3028 12.2303C15.418 13.1151 14.8154 14.2424 14.5713 15.4696C14.3272 16.6969 14.4525 17.969 14.9313 19.1251C15.4102 20.2811 16.2211 21.2692 17.2615 21.9644C18.3019 22.6596 19.5251 23.0306 20.7764 23.0306C22.4544 23.0306 24.0636 22.3641 25.2501 21.1776C26.4366 19.9911 27.1031 18.3819 27.1031 16.7039ZM16.9804 16.7039C16.9804 15.9531 17.203 15.2192 17.6202 14.595C18.0373 13.9707 18.6301 13.4842 19.3238 13.1969C20.0174 12.9095 20.7806 12.8344 21.517 12.9808C22.2534 13.1273 22.9298 13.4888 23.4606 14.0197C23.9915 14.5506 24.3531 15.227 24.4995 15.9634C24.646 16.6997 24.5708 17.463 24.2835 18.1566C23.9962 18.8502 23.5096 19.4431 22.8854 19.8602C22.2611 20.2773 21.5272 20.5 20.7764 20.5C19.7697 20.5 18.8041 20.1 18.0922 19.3881C17.3803 18.6762 16.9804 17.7107 16.9804 16.7039Z" fill="#F37524"/>
</svg>
