<svg width="41" height="41" viewBox="0 0 41 41" fill="none" xmlns="http://www.w3.org/2000/svg">
<g clip-path="url(#clip0_149_578)">
<path opacity="0.2" d="M33.2766 11.75V29.25H8.27661V11.75H33.2766Z" fill="#F37524"/>
<path d="M14.5266 23V20.5C14.5266 20.1685 14.6583 19.8505 14.8927 19.6161C15.1271 19.3817 15.4451 19.25 15.7766 19.25C16.1081 19.25 16.4261 19.3817 16.6605 19.6161C16.8949 19.8505 17.0266 20.1685 17.0266 20.5V23C17.0266 23.3315 16.8949 23.6495 16.6605 23.8839C16.4261 24.1183 16.1081 24.25 15.7766 24.25C15.4451 24.25 15.1271 24.1183 14.8927 23.8839C14.6583 23.6495 14.5266 23.3315 14.5266 23ZM20.7766 24.25C21.1081 24.25 21.4261 24.1183 21.6605 23.8839C21.8949 23.6495 22.0266 23.3315 22.0266 23V19.25C22.0266 18.9185 21.8949 18.6005 21.6605 18.3661C21.4261 18.1317 21.1081 18 20.7766 18C20.4451 18 20.1271 18.1317 19.8927 18.3661C19.6583 18.6005 19.5266 18.9185 19.5266 19.25V23C19.5266 23.3315 19.6583 23.6495 19.8927 23.8839C20.1271 24.1183 20.4451 24.25 20.7766 24.25ZM25.7766 24.25C26.1081 24.25 26.4261 24.1183 26.6605 23.8839C26.8949 23.6495 27.0266 23.3315 27.0266 23V18C27.0266 17.6685 26.8949 17.3505 26.6605 17.1161C26.4261 16.8817 26.1081 16.75 25.7766 16.75C25.4451 16.75 25.1271 16.8817 24.8927 17.1161C24.6583 17.3505 24.5266 17.6685 24.5266 18V23C24.5266 23.3315 24.6583 23.6495 24.8927 23.8839C25.1271 24.1183 25.4451 24.25 25.7766 24.25ZM34.5266 13V28H35.7766C36.1081 28 36.4261 28.1317 36.6605 28.3661C36.8949 28.6005 37.0266 28.9185 37.0266 29.25C37.0266 29.5815 36.8949 29.8995 36.6605 30.1339C36.4261 30.3683 36.1081 30.5 35.7766 30.5H22.0266V33.2156C22.8606 33.5105 23.5636 34.0907 24.0112 34.8537C24.4587 35.6167 24.6222 36.5134 24.4726 37.3853C24.323 38.2572 23.87 39.0481 23.1937 39.6183C22.5174 40.1884 21.6612 40.5012 20.7766 40.5012C19.892 40.5012 19.0359 40.1884 18.3595 39.6183C17.6832 39.0481 17.2302 38.2572 17.0806 37.3853C16.931 36.5134 17.0945 35.6167 17.5421 34.8537C17.9897 34.0907 18.6926 33.5105 19.5266 33.2156V30.5H5.77661C5.44509 30.5 5.12715 30.3683 4.89273 30.1339C4.65831 29.8995 4.52661 29.5815 4.52661 29.25C4.52661 28.9185 4.65831 28.6005 4.89273 28.3661C5.12715 28.1317 5.44509 28 5.77661 28H7.02661V13C6.36357 13 5.72769 12.7366 5.25884 12.2678C4.79 11.7989 4.52661 11.163 4.52661 10.5V8C4.52661 7.33696 4.79 6.70107 5.25884 6.23223C5.72769 5.76339 6.36357 5.5 7.02661 5.5H34.5266C35.1897 5.5 35.8255 5.76339 36.2944 6.23223C36.7632 6.70107 37.0266 7.33696 37.0266 8V10.5C37.0266 11.163 36.7632 11.7989 36.2944 12.2678C35.8255 12.7366 35.1897 13 34.5266 13ZM22.0266 36.75C22.0266 36.5028 21.9533 36.2611 21.8159 36.0555C21.6786 35.85 21.4834 35.6898 21.255 35.5951C21.0266 35.5005 20.7752 35.4758 20.5327 35.524C20.2903 35.5723 20.0675 35.6913 19.8927 35.8661C19.7179 36.0409 19.5989 36.2637 19.5506 36.5061C19.5024 36.7486 19.5272 36.9999 19.6218 37.2284C19.7164 37.4568 19.8766 37.652 20.0821 37.7893C20.2877 37.9267 20.5294 38 20.7766 38C21.1081 38 21.4261 37.8683 21.6605 37.6339C21.8949 37.3995 22.0266 37.0815 22.0266 36.75ZM7.02661 10.5H34.5266V8H7.02661V10.5ZM32.0266 13H9.52661V28H32.0266V13Z" fill="#F37524"/>
</g>
<defs>
<clipPath id="clip0_149_578">
<rect width="40" height="40" fill="white" transform="translate(0.776611 0.5)"/>
</clipPath>
</defs>
</svg>
